<svg xmlns="http://www.w3.org/2000/svg" width="2000" height="1180" viewBox="0 0 2000 1180">
  <defs>
    <radialGradient id="groundGlow" cx="16%" cy="-5%" r="75%"><stop stop-color="#46c3d6" stop-opacity=".12"/><stop offset=".58" stop-color="#46c3d6" stop-opacity="0"/></radialGradient>
    <pattern id="grid" width="22" height="22" patternUnits="userSpaceOnUse"><path d="M22 0H0v22" fill="none" stroke="#fff" stroke-opacity=".022"/></pattern>
  </defs>
  <rect width="100%" height="100%" fill="#080b0d"/><rect width="100%" height="100%" fill="url(#groundGlow)"/>
  <text x="72" y="72" fill="#46c3d6" font-family="Inter, -apple-system, BlinkMacSystemFont, Segoe UI, sans-serif" font-size="14" font-weight="700" text-anchor="start" letter-spacing="2.8">03 · COMPACT AND MATERIAL USAGE</text><text x="72" y="128" fill="#f3f0e6" font-family="Inter, -apple-system, BlinkMacSystemFont, Segoe UI, sans-serif" font-size="43" font-weight="620" text-anchor="start" letter-spacing="-1.8">Finalists outside the center</text><text x="72" y="163" fill="#9ca8af" font-family="Inter, -apple-system, BlinkMacSystemFont, Segoe UI, sans-serif" font-size="17" font-weight="400" text-anchor="start" letter-spacing="0">16/24 px rail · favicon-like tile · monochrome · cyan / white / warm white</text><rect x="72" y="220" width="1856" height="201" rx="12" fill="#12171b" stroke="#253038"/><text x="98" y="263" fill="#46c3d6" font-family="Inter, -apple-system, BlinkMacSystemFont, Segoe UI, sans-serif" font-size="11" font-weight="700" text-anchor="start" letter-spacing="1.5">C3</text><text x="98" y="298" fill="#f3f0e6" font-family="Inter, -apple-system, BlinkMacSystemFont, Segoe UI, sans-serif" font-size="22" font-weight="610" text-anchor="start" letter-spacing="-0.35">Four Gap</text><text x="98" y="325" fill="#9ca8af" font-family="Inter, -apple-system, BlinkMacSystemFont, Segoe UI, sans-serif" font-size="12" font-weight="400" text-anchor="start" letter-spacing="0">Confluence</text><rect x="360" y="246" width="355" height="149" rx="10" fill="#182026" stroke="#253038"/><rect x="377" y="264" width="321" height="50" rx="8" fill="#46c3d6" fill-opacity=".09"/><rect x="377" y="264" width="2" height="50" fill="#46c3d6"/><rect x="393" y="273" width="32" height="32" rx="7" fill="#46c3d6" fill-opacity=".07" stroke="#46c3d6" stroke-opacity=".3"/><g transform="translate(401 281) scale(0.25)" color="#46c3d6" opacity="1"><g stroke="currentColor" stroke-width="3.75" stroke-linecap="round" stroke-linejoin="round">
    <path d="M8 13h6c8 0 8 9 14 13"/>
    <path d="M8 51h6c8 0 8-9 14-13"/>
    <path d="M56 13h-6c-8 0-8 9-14 13"/>
    <path d="M56 51h-6c-8 0-8-9-14-13"/>
    <circle cx="32" cy="32" r="8" stroke-width="4.25"/>
  </g>
  <circle cx="32" cy="32" r="3" fill="currentColor"/></g><text x="440" y="286" fill="#f3f0e6" font-family="Inter, -apple-system, BlinkMacSystemFont, Segoe UI, sans-serif" font-size="10" font-weight="700" text-anchor="start" letter-spacing="1.05">AUDIT WORLD</text><text x="440" y="303" fill="#64717a" font-family="Inter, -apple-system, BlinkMacSystemFont, Segoe UI, sans-serif" font-size="10" font-weight="400" text-anchor="start" letter-spacing="0">Reality</text><g transform="translate(397 339) scale(0.375)" color="#f3f0e6" opacity="1"><g stroke="currentColor" stroke-width="3.75" stroke-linecap="round" stroke-linejoin="round">
    <path d="M8 13h6c8 0 8 9 14 13"/>
    <path d="M8 51h6c8 0 8-9 14-13"/>
    <path d="M56 13h-6c-8 0-8 9-14 13"/>
    <path d="M56 51h-6c-8 0-8-9-14-13"/>
    <circle cx="32" cy="32" r="8" stroke-width="4.25"/>
  </g>
  <circle cx="32" cy="32" r="3" fill="currentColor"/></g><text x="433" y="356" fill="#64717a" font-family="Inter, -apple-system, BlinkMacSystemFont, Segoe UI, sans-serif" font-size="10" font-weight="650" text-anchor="start" letter-spacing="1.15">16 PX / 24 PX</text><rect x="746" y="246" width="150" height="149" rx="10" fill="#0b0f12" stroke="#253038"/><rect x="795" y="269" width="52" height="52" rx="11" fill="#182026" stroke="#34434d"/><g transform="translate(813 287) scale(0.25)" color="#46c3d6" opacity="1"><g stroke="currentColor" stroke-width="3.75" stroke-linecap="round" stroke-linejoin="round">
    <path d="M8 13h6c8 0 8 9 14 13"/>
    <path d="M8 51h6c8 0 8-9 14-13"/>
    <path d="M56 13h-6c-8 0-8 9-14 13"/>
    <path d="M56 51h-6c-8 0-8-9-14-13"/>
    <circle cx="32" cy="32" r="8" stroke-width="4.25"/>
  </g>
  <circle cx="32" cy="32" r="3" fill="currentColor"/></g><text x="821" y="355" fill="#64717a" font-family="Inter, -apple-system, BlinkMacSystemFont, Segoe UI, sans-serif" font-size="9" font-weight="700" text-anchor="middle" letter-spacing="1.3">FAVICON</text><rect x="928" y="246" width="164" height="149" rx="10" fill="#46c3d6" stroke="#253038"/><g transform="translate(978 277) scale(1)" color="#0b0f12" opacity="1"><g stroke="currentColor" stroke-width="3.75" stroke-linecap="round" stroke-linejoin="round">
    <path d="M8 13h6c8 0 8 9 14 13"/>
    <path d="M8 51h6c8 0 8-9 14-13"/>
    <path d="M56 13h-6c-8 0-8 9-14 13"/>
    <path d="M56 51h-6c-8 0-8-9-14-13"/>
    <circle cx="32" cy="32" r="8" stroke-width="4.25"/>
  </g>
  <circle cx="32" cy="32" r="3" fill="currentColor"/></g><text x="1010" y="371" fill="#0b0f12" font-family="Inter, -apple-system, BlinkMacSystemFont, Segoe UI, sans-serif" font-size="8.5" font-weight="700" text-anchor="middle" letter-spacing="1.15">CYAN</text><rect x="1132" y="246" width="164" height="149" rx="10" fill="#ffffff" stroke="#253038"/><g transform="translate(1182 277) scale(1)" color="#0b0f12" opacity="1"><g stroke="currentColor" stroke-width="3.75" stroke-linecap="round" stroke-linejoin="round">
    <path d="M8 13h6c8 0 8 9 14 13"/>
    <path d="M8 51h6c8 0 8-9 14-13"/>
    <path d="M56 13h-6c-8 0-8 9-14 13"/>
    <path d="M56 51h-6c-8 0-8-9-14-13"/>
    <circle cx="32" cy="32" r="8" stroke-width="4.25"/>
  </g>
  <circle cx="32" cy="32" r="3" fill="currentColor"/></g><text x="1214" y="371" fill="#0b0f12" font-family="Inter, -apple-system, BlinkMacSystemFont, Segoe UI, sans-serif" font-size="8.5" font-weight="700" text-anchor="middle" letter-spacing="1.15">WHITE</text><rect x="1336" y="246" width="164" height="149" rx="10" fill="#f3f0e6" stroke="#253038"/><g transform="translate(1386 277) scale(1)" color="#0b0f12" opacity="1"><g stroke="currentColor" stroke-width="3.75" stroke-linecap="round" stroke-linejoin="round">
    <path d="M8 13h6c8 0 8 9 14 13"/>
    <path d="M8 51h6c8 0 8-9 14-13"/>
    <path d="M56 13h-6c-8 0-8 9-14 13"/>
    <path d="M56 51h-6c-8 0-8-9-14-13"/>
    <circle cx="32" cy="32" r="8" stroke-width="4.25"/>
  </g>
  <circle cx="32" cy="32" r="3" fill="currentColor"/></g><text x="1418" y="371" fill="#0b0f12" font-family="Inter, -apple-system, BlinkMacSystemFont, Segoe UI, sans-serif" font-size="8.5" font-weight="700" text-anchor="middle" letter-spacing="1.15">WARM WHITE</text><rect x="1540" y="246" width="164" height="149" rx="10" fill="#0b0f12" stroke="#253038"/><g transform="translate(1590 277) scale(1)" color="#f3f0e6" opacity="1"><g stroke="currentColor" stroke-width="3.75" stroke-linecap="round" stroke-linejoin="round">
    <path d="M8 13h6c8 0 8 9 14 13"/>
    <path d="M8 51h6c8 0 8-9 14-13"/>
    <path d="M56 13h-6c-8 0-8 9-14 13"/>
    <path d="M56 51h-6c-8 0-8-9-14-13"/>
    <circle cx="32" cy="32" r="8" stroke-width="4.25"/>
  </g>
  <circle cx="32" cy="32" r="3" fill="currentColor"/></g><text x="1622" y="371" fill="#f3f0e6" font-family="Inter, -apple-system, BlinkMacSystemFont, Segoe UI, sans-serif" font-size="8.5" font-weight="700" text-anchor="middle" letter-spacing="1.15">MONO DARK</text><rect x="1744" y="246" width="164" height="149" rx="10" fill="#f7f7f5" stroke="#253038"/><g transform="translate(1794 277) scale(1)" color="#101417" opacity="1"><g stroke="currentColor" stroke-width="3.75" stroke-linecap="round" stroke-linejoin="round">
    <path d="M8 13h6c8 0 8 9 14 13"/>
    <path d="M8 51h6c8 0 8-9 14-13"/>
    <path d="M56 13h-6c-8 0-8 9-14 13"/>
    <path d="M56 51h-6c-8 0-8-9-14-13"/>
    <circle cx="32" cy="32" r="8" stroke-width="4.25"/>
  </g>
  <circle cx="32" cy="32" r="3" fill="currentColor"/></g><text x="1826" y="371" fill="#101417" font-family="Inter, -apple-system, BlinkMacSystemFont, Segoe UI, sans-serif" font-size="8.5" font-weight="700" text-anchor="middle" letter-spacing="1.15">MONO LIGHT</text><rect x="72" y="443" width="1856" height="201" rx="12" fill="#12171b" stroke="#253038"/><text x="98" y="486" fill="#46c3d6" font-family="Inter, -apple-system, BlinkMacSystemFont, Segoe UI, sans-serif" font-size="11" font-weight="700" text-anchor="start" letter-spacing="1.5">C4</text><text x="98" y="521" fill="#f3f0e6" font-family="Inter, -apple-system, BlinkMacSystemFont, Segoe UI, sans-serif" font-size="22" font-weight="610" text-anchor="start" letter-spacing="-0.35">Four Core</text><text x="98" y="548" fill="#9ca8af" font-family="Inter, -apple-system, BlinkMacSystemFont, Segoe UI, sans-serif" font-size="12" font-weight="400" text-anchor="start" letter-spacing="0">Confluence</text><rect x="360" y="469" width="355" height="149" rx="10" fill="#182026" stroke="#253038"/><rect x="377" y="487" width="321" height="50" rx="8" fill="#46c3d6" fill-opacity=".09"/><rect x="377" y="487" width="2" height="50" fill="#46c3d6"/><rect x="393" y="496" width="32" height="32" rx="7" fill="#46c3d6" fill-opacity=".07" stroke="#46c3d6" stroke-opacity=".3"/><g transform="translate(401 504) scale(0.25)" color="#46c3d6" opacity="1"><g stroke="currentColor" stroke-width="4" stroke-linecap="round" stroke-linejoin="round">
    <path d="M9 15h7c7 0 7 7 10 11"/>
    <path d="M9 49h7c7 0 7-7 10-11"/>
    <path d="M55 15h-7c-7 0-7 7-10 11"/>
    <path d="M55 49h-7c-7 0-7-7-10-11"/>
  </g>
  <circle cx="32" cy="32" r="5.5" fill="currentColor"/></g><text x="440" y="509" fill="#f3f0e6" font-family="Inter, -apple-system, BlinkMacSystemFont, Segoe UI, sans-serif" font-size="10" font-weight="700" text-anchor="start" letter-spacing="1.05">AUDIT WORLD</text><text x="440" y="526" fill="#64717a" font-family="Inter, -apple-system, BlinkMacSystemFont, Segoe UI, sans-serif" font-size="10" font-weight="400" text-anchor="start" letter-spacing="0">Reality</text><g transform="translate(397 562) scale(0.375)" color="#f3f0e6" opacity="1"><g stroke="currentColor" stroke-width="4" stroke-linecap="round" stroke-linejoin="round">
    <path d="M9 15h7c7 0 7 7 10 11"/>
    <path d="M9 49h7c7 0 7-7 10-11"/>
    <path d="M55 15h-7c-7 0-7 7-10 11"/>
    <path d="M55 49h-7c-7 0-7-7-10-11"/>
  </g>
  <circle cx="32" cy="32" r="5.5" fill="currentColor"/></g><text x="433" y="579" fill="#64717a" font-family="Inter, -apple-system, BlinkMacSystemFont, Segoe UI, sans-serif" font-size="10" font-weight="650" text-anchor="start" letter-spacing="1.15">16 PX / 24 PX</text><rect x="746" y="469" width="150" height="149" rx="10" fill="#0b0f12" stroke="#253038"/><rect x="795" y="492" width="52" height="52" rx="11" fill="#182026" stroke="#34434d"/><g transform="translate(813 510) scale(0.25)" color="#46c3d6" opacity="1"><g stroke="currentColor" stroke-width="4" stroke-linecap="round" stroke-linejoin="round">
    <path d="M9 15h7c7 0 7 7 10 11"/>
    <path d="M9 49h7c7 0 7-7 10-11"/>
    <path d="M55 15h-7c-7 0-7 7-10 11"/>
    <path d="M55 49h-7c-7 0-7-7-10-11"/>
  </g>
  <circle cx="32" cy="32" r="5.5" fill="currentColor"/></g><text x="821" y="578" fill="#64717a" font-family="Inter, -apple-system, BlinkMacSystemFont, Segoe UI, sans-serif" font-size="9" font-weight="700" text-anchor="middle" letter-spacing="1.3">FAVICON</text><rect x="928" y="469" width="164" height="149" rx="10" fill="#46c3d6" stroke="#253038"/><g transform="translate(978 500) scale(1)" color="#0b0f12" opacity="1"><g stroke="currentColor" stroke-width="4" stroke-linecap="round" stroke-linejoin="round">
    <path d="M9 15h7c7 0 7 7 10 11"/>
    <path d="M9 49h7c7 0 7-7 10-11"/>
    <path d="M55 15h-7c-7 0-7 7-10 11"/>
    <path d="M55 49h-7c-7 0-7-7-10-11"/>
  </g>
  <circle cx="32" cy="32" r="5.5" fill="currentColor"/></g><text x="1010" y="594" fill="#0b0f12" font-family="Inter, -apple-system, BlinkMacSystemFont, Segoe UI, sans-serif" font-size="8.5" font-weight="700" text-anchor="middle" letter-spacing="1.15">CYAN</text><rect x="1132" y="469" width="164" height="149" rx="10" fill="#ffffff" stroke="#253038"/><g transform="translate(1182 500) scale(1)" color="#0b0f12" opacity="1"><g stroke="currentColor" stroke-width="4" stroke-linecap="round" stroke-linejoin="round">
    <path d="M9 15h7c7 0 7 7 10 11"/>
    <path d="M9 49h7c7 0 7-7 10-11"/>
    <path d="M55 15h-7c-7 0-7 7-10 11"/>
    <path d="M55 49h-7c-7 0-7-7-10-11"/>
  </g>
  <circle cx="32" cy="32" r="5.5" fill="currentColor"/></g><text x="1214" y="594" fill="#0b0f12" font-family="Inter, -apple-system, BlinkMacSystemFont, Segoe UI, sans-serif" font-size="8.5" font-weight="700" text-anchor="middle" letter-spacing="1.15">WHITE</text><rect x="1336" y="469" width="164" height="149" rx="10" fill="#f3f0e6" stroke="#253038"/><g transform="translate(1386 500) scale(1)" color="#0b0f12" opacity="1"><g stroke="currentColor" stroke-width="4" stroke-linecap="round" stroke-linejoin="round">
    <path d="M9 15h7c7 0 7 7 10 11"/>
    <path d="M9 49h7c7 0 7-7 10-11"/>
    <path d="M55 15h-7c-7 0-7 7-10 11"/>
    <path d="M55 49h-7c-7 0-7-7-10-11"/>
  </g>
  <circle cx="32" cy="32" r="5.5" fill="currentColor"/></g><text x="1418" y="594" fill="#0b0f12" font-family="Inter, -apple-system, BlinkMacSystemFont, Segoe UI, sans-serif" font-size="8.5" font-weight="700" text-anchor="middle" letter-spacing="1.15">WARM WHITE</text><rect x="1540" y="469" width="164" height="149" rx="10" fill="#0b0f12" stroke="#253038"/><g transform="translate(1590 500) scale(1)" color="#f3f0e6" opacity="1"><g stroke="currentColor" stroke-width="4" stroke-linecap="round" stroke-linejoin="round">
    <path d="M9 15h7c7 0 7 7 10 11"/>
    <path d="M9 49h7c7 0 7-7 10-11"/>
    <path d="M55 15h-7c-7 0-7 7-10 11"/>
    <path d="M55 49h-7c-7 0-7-7-10-11"/>
  </g>
  <circle cx="32" cy="32" r="5.5" fill="currentColor"/></g><text x="1622" y="594" fill="#f3f0e6" font-family="Inter, -apple-system, BlinkMacSystemFont, Segoe UI, sans-serif" font-size="8.5" font-weight="700" text-anchor="middle" letter-spacing="1.15">MONO DARK</text><rect x="1744" y="469" width="164" height="149" rx="10" fill="#f7f7f5" stroke="#253038"/><g transform="translate(1794 500) scale(1)" color="#101417" opacity="1"><g stroke="currentColor" stroke-width="4" stroke-linecap="round" stroke-linejoin="round">
    <path d="M9 15h7c7 0 7 7 10 11"/>
    <path d="M9 49h7c7 0 7-7 10-11"/>
    <path d="M55 15h-7c-7 0-7 7-10 11"/>
    <path d="M55 49h-7c-7 0-7-7-10-11"/>
  </g>
  <circle cx="32" cy="32" r="5.5" fill="currentColor"/></g><text x="1826" y="594" fill="#101417" font-family="Inter, -apple-system, BlinkMacSystemFont, Segoe UI, sans-serif" font-size="8.5" font-weight="700" text-anchor="middle" letter-spacing="1.15">MONO LIGHT</text><rect x="72" y="666" width="1856" height="201" rx="12" fill="#12171b" stroke="#253038"/><text x="98" y="709" fill="#46c3d6" font-family="Inter, -apple-system, BlinkMacSystemFont, Segoe UI, sans-serif" font-size="11" font-weight="700" text-anchor="start" letter-spacing="1.5">P2</text><text x="98" y="744" fill="#f3f0e6" font-family="Inter, -apple-system, BlinkMacSystemFont, Segoe UI, sans-serif" font-size="22" font-weight="610" text-anchor="start" letter-spacing="-0.35">Datum Ring</text><text x="98" y="771" fill="#9ca8af" font-family="Inter, -apple-system, BlinkMacSystemFont, Segoe UI, sans-serif" font-size="12" font-weight="400" text-anchor="start" letter-spacing="0">Phase Lock</text><rect x="360" y="692" width="355" height="149" rx="10" fill="#182026" stroke="#253038"/><rect x="377" y="710" width="321" height="50" rx="8" fill="#46c3d6" fill-opacity=".09"/><rect x="377" y="710" width="2" height="50" fill="#46c3d6"/><rect x="393" y="719" width="32" height="32" rx="7" fill="#46c3d6" fill-opacity=".07" stroke="#46c3d6" stroke-opacity=".3"/><g transform="translate(401 727) scale(0.25)" color="#46c3d6" opacity="1"><g stroke="currentColor" stroke-width="4" stroke-linecap="round" stroke-linejoin="round">
    <path d="M8 15h8c9 0 8 13 17 14"/>
    <path d="M8 32h25"/>
    <path d="M8 49h8c9 0 8-13 17-14"/>
    <circle cx="40" cy="32" r="6.5"/>
  </g>
  <circle cx="40" cy="32" r="2.5" fill="currentColor"/></g><text x="440" y="732" fill="#f3f0e6" font-family="Inter, -apple-system, BlinkMacSystemFont, Segoe UI, sans-serif" font-size="10" font-weight="700" text-anchor="start" letter-spacing="1.05">AUDIT WORLD</text><text x="440" y="749" fill="#64717a" font-family="Inter, -apple-system, BlinkMacSystemFont, Segoe UI, sans-serif" font-size="10" font-weight="400" text-anchor="start" letter-spacing="0">Reality</text><g transform="translate(397 785) scale(0.375)" color="#f3f0e6" opacity="1"><g stroke="currentColor" stroke-width="4" stroke-linecap="round" stroke-linejoin="round">
    <path d="M8 15h8c9 0 8 13 17 14"/>
    <path d="M8 32h25"/>
    <path d="M8 49h8c9 0 8-13 17-14"/>
    <circle cx="40" cy="32" r="6.5"/>
  </g>
  <circle cx="40" cy="32" r="2.5" fill="currentColor"/></g><text x="433" y="802" fill="#64717a" font-family="Inter, -apple-system, BlinkMacSystemFont, Segoe UI, sans-serif" font-size="10" font-weight="650" text-anchor="start" letter-spacing="1.15">16 PX / 24 PX</text><rect x="746" y="692" width="150" height="149" rx="10" fill="#0b0f12" stroke="#253038"/><rect x="795" y="715" width="52" height="52" rx="11" fill="#182026" stroke="#34434d"/><g transform="translate(813 733) scale(0.25)" color="#46c3d6" opacity="1"><g stroke="currentColor" stroke-width="4" stroke-linecap="round" stroke-linejoin="round">
    <path d="M8 15h8c9 0 8 13 17 14"/>
    <path d="M8 32h25"/>
    <path d="M8 49h8c9 0 8-13 17-14"/>
    <circle cx="40" cy="32" r="6.5"/>
  </g>
  <circle cx="40" cy="32" r="2.5" fill="currentColor"/></g><text x="821" y="801" fill="#64717a" font-family="Inter, -apple-system, BlinkMacSystemFont, Segoe UI, sans-serif" font-size="9" font-weight="700" text-anchor="middle" letter-spacing="1.3">FAVICON</text><rect x="928" y="692" width="164" height="149" rx="10" fill="#46c3d6" stroke="#253038"/><g transform="translate(978 723) scale(1)" color="#0b0f12" opacity="1"><g stroke="currentColor" stroke-width="4" stroke-linecap="round" stroke-linejoin="round">
    <path d="M8 15h8c9 0 8 13 17 14"/>
    <path d="M8 32h25"/>
    <path d="M8 49h8c9 0 8-13 17-14"/>
    <circle cx="40" cy="32" r="6.5"/>
  </g>
  <circle cx="40" cy="32" r="2.5" fill="currentColor"/></g><text x="1010" y="817" fill="#0b0f12" font-family="Inter, -apple-system, BlinkMacSystemFont, Segoe UI, sans-serif" font-size="8.5" font-weight="700" text-anchor="middle" letter-spacing="1.15">CYAN</text><rect x="1132" y="692" width="164" height="149" rx="10" fill="#ffffff" stroke="#253038"/><g transform="translate(1182 723) scale(1)" color="#0b0f12" opacity="1"><g stroke="currentColor" stroke-width="4" stroke-linecap="round" stroke-linejoin="round">
    <path d="M8 15h8c9 0 8 13 17 14"/>
    <path d="M8 32h25"/>
    <path d="M8 49h8c9 0 8-13 17-14"/>
    <circle cx="40" cy="32" r="6.5"/>
  </g>
  <circle cx="40" cy="32" r="2.5" fill="currentColor"/></g><text x="1214" y="817" fill="#0b0f12" font-family="Inter, -apple-system, BlinkMacSystemFont, Segoe UI, sans-serif" font-size="8.5" font-weight="700" text-anchor="middle" letter-spacing="1.15">WHITE</text><rect x="1336" y="692" width="164" height="149" rx="10" fill="#f3f0e6" stroke="#253038"/><g transform="translate(1386 723) scale(1)" color="#0b0f12" opacity="1"><g stroke="currentColor" stroke-width="4" stroke-linecap="round" stroke-linejoin="round">
    <path d="M8 15h8c9 0 8 13 17 14"/>
    <path d="M8 32h25"/>
    <path d="M8 49h8c9 0 8-13 17-14"/>
    <circle cx="40" cy="32" r="6.5"/>
  </g>
  <circle cx="40" cy="32" r="2.5" fill="currentColor"/></g><text x="1418" y="817" fill="#0b0f12" font-family="Inter, -apple-system, BlinkMacSystemFont, Segoe UI, sans-serif" font-size="8.5" font-weight="700" text-anchor="middle" letter-spacing="1.15">WARM WHITE</text><rect x="1540" y="692" width="164" height="149" rx="10" fill="#0b0f12" stroke="#253038"/><g transform="translate(1590 723) scale(1)" color="#f3f0e6" opacity="1"><g stroke="currentColor" stroke-width="4" stroke-linecap="round" stroke-linejoin="round">
    <path d="M8 15h8c9 0 8 13 17 14"/>
    <path d="M8 32h25"/>
    <path d="M8 49h8c9 0 8-13 17-14"/>
    <circle cx="40" cy="32" r="6.5"/>
  </g>
  <circle cx="40" cy="32" r="2.5" fill="currentColor"/></g><text x="1622" y="817" fill="#f3f0e6" font-family="Inter, -apple-system, BlinkMacSystemFont, Segoe UI, sans-serif" font-size="8.5" font-weight="700" text-anchor="middle" letter-spacing="1.15">MONO DARK</text><rect x="1744" y="692" width="164" height="149" rx="10" fill="#f7f7f5" stroke="#253038"/><g transform="translate(1794 723) scale(1)" color="#101417" opacity="1"><g stroke="currentColor" stroke-width="4" stroke-linecap="round" stroke-linejoin="round">
    <path d="M8 15h8c9 0 8 13 17 14"/>
    <path d="M8 32h25"/>
    <path d="M8 49h8c9 0 8-13 17-14"/>
    <circle cx="40" cy="32" r="6.5"/>
  </g>
  <circle cx="40" cy="32" r="2.5" fill="currentColor"/></g><text x="1826" y="817" fill="#101417" font-family="Inter, -apple-system, BlinkMacSystemFont, Segoe UI, sans-serif" font-size="8.5" font-weight="700" text-anchor="middle" letter-spacing="1.15">MONO LIGHT</text><rect x="72" y="889" width="1856" height="201" rx="12" fill="#12171b" stroke="#253038"/><text x="98" y="932" fill="#46c3d6" font-family="Inter, -apple-system, BlinkMacSystemFont, Segoe UI, sans-serif" font-size="11" font-weight="700" text-anchor="start" letter-spacing="1.5">P1</text><text x="98" y="967" fill="#f3f0e6" font-family="Inter, -apple-system, BlinkMacSystemFont, Segoe UI, sans-serif" font-size="22" font-weight="610" text-anchor="start" letter-spacing="-0.35">Open Point</text><text x="98" y="994" fill="#9ca8af" font-family="Inter, -apple-system, BlinkMacSystemFont, Segoe UI, sans-serif" font-size="12" font-weight="400" text-anchor="start" letter-spacing="0">Phase Lock</text><rect x="360" y="915" width="355" height="149" rx="10" fill="#182026" stroke="#253038"/><rect x="377" y="933" width="321" height="50" rx="8" fill="#46c3d6" fill-opacity=".09"/><rect x="377" y="933" width="2" height="50" fill="#46c3d6"/><rect x="393" y="942" width="32" height="32" rx="7" fill="#46c3d6" fill-opacity=".07" stroke="#46c3d6" stroke-opacity=".3"/><g transform="translate(401 950) scale(0.25)" color="#46c3d6" opacity="1"><g stroke="currentColor" stroke-width="4" stroke-linecap="round" stroke-linejoin="round">
    <path d="M8 15h8c9 0 8 13 17 14"/>
    <path d="M8 32h25"/>
    <path d="M8 49h8c9 0 8-13 17-14"/>
  </g>
  <circle cx="39" cy="32" r="4" fill="currentColor"/></g><text x="440" y="955" fill="#f3f0e6" font-family="Inter, -apple-system, BlinkMacSystemFont, Segoe UI, sans-serif" font-size="10" font-weight="700" text-anchor="start" letter-spacing="1.05">AUDIT WORLD</text><text x="440" y="972" fill="#64717a" font-family="Inter, -apple-system, BlinkMacSystemFont, Segoe UI, sans-serif" font-size="10" font-weight="400" text-anchor="start" letter-spacing="0">Reality</text><g transform="translate(397 1008) scale(0.375)" color="#f3f0e6" opacity="1"><g stroke="currentColor" stroke-width="4" stroke-linecap="round" stroke-linejoin="round">
    <path d="M8 15h8c9 0 8 13 17 14"/>
    <path d="M8 32h25"/>
    <path d="M8 49h8c9 0 8-13 17-14"/>
  </g>
  <circle cx="39" cy="32" r="4" fill="currentColor"/></g><text x="433" y="1025" fill="#64717a" font-family="Inter, -apple-system, BlinkMacSystemFont, Segoe UI, sans-serif" font-size="10" font-weight="650" text-anchor="start" letter-spacing="1.15">16 PX / 24 PX</text><rect x="746" y="915" width="150" height="149" rx="10" fill="#0b0f12" stroke="#253038"/><rect x="795" y="938" width="52" height="52" rx="11" fill="#182026" stroke="#34434d"/><g transform="translate(813 956) scale(0.25)" color="#46c3d6" opacity="1"><g stroke="currentColor" stroke-width="4" stroke-linecap="round" stroke-linejoin="round">
    <path d="M8 15h8c9 0 8 13 17 14"/>
    <path d="M8 32h25"/>
    <path d="M8 49h8c9 0 8-13 17-14"/>
  </g>
  <circle cx="39" cy="32" r="4" fill="currentColor"/></g><text x="821" y="1024" fill="#64717a" font-family="Inter, -apple-system, BlinkMacSystemFont, Segoe UI, sans-serif" font-size="9" font-weight="700" text-anchor="middle" letter-spacing="1.3">FAVICON</text><rect x="928" y="915" width="164" height="149" rx="10" fill="#46c3d6" stroke="#253038"/><g transform="translate(978 946) scale(1)" color="#0b0f12" opacity="1"><g stroke="currentColor" stroke-width="4" stroke-linecap="round" stroke-linejoin="round">
    <path d="M8 15h8c9 0 8 13 17 14"/>
    <path d="M8 32h25"/>
    <path d="M8 49h8c9 0 8-13 17-14"/>
  </g>
  <circle cx="39" cy="32" r="4" fill="currentColor"/></g><text x="1010" y="1040" fill="#0b0f12" font-family="Inter, -apple-system, BlinkMacSystemFont, Segoe UI, sans-serif" font-size="8.5" font-weight="700" text-anchor="middle" letter-spacing="1.15">CYAN</text><rect x="1132" y="915" width="164" height="149" rx="10" fill="#ffffff" stroke="#253038"/><g transform="translate(1182 946) scale(1)" color="#0b0f12" opacity="1"><g stroke="currentColor" stroke-width="4" stroke-linecap="round" stroke-linejoin="round">
    <path d="M8 15h8c9 0 8 13 17 14"/>
    <path d="M8 32h25"/>
    <path d="M8 49h8c9 0 8-13 17-14"/>
  </g>
  <circle cx="39" cy="32" r="4" fill="currentColor"/></g><text x="1214" y="1040" fill="#0b0f12" font-family="Inter, -apple-system, BlinkMacSystemFont, Segoe UI, sans-serif" font-size="8.5" font-weight="700" text-anchor="middle" letter-spacing="1.15">WHITE</text><rect x="1336" y="915" width="164" height="149" rx="10" fill="#f3f0e6" stroke="#253038"/><g transform="translate(1386 946) scale(1)" color="#0b0f12" opacity="1"><g stroke="currentColor" stroke-width="4" stroke-linecap="round" stroke-linejoin="round">
    <path d="M8 15h8c9 0 8 13 17 14"/>
    <path d="M8 32h25"/>
    <path d="M8 49h8c9 0 8-13 17-14"/>
  </g>
  <circle cx="39" cy="32" r="4" fill="currentColor"/></g><text x="1418" y="1040" fill="#0b0f12" font-family="Inter, -apple-system, BlinkMacSystemFont, Segoe UI, sans-serif" font-size="8.5" font-weight="700" text-anchor="middle" letter-spacing="1.15">WARM WHITE</text><rect x="1540" y="915" width="164" height="149" rx="10" fill="#0b0f12" stroke="#253038"/><g transform="translate(1590 946) scale(1)" color="#f3f0e6" opacity="1"><g stroke="currentColor" stroke-width="4" stroke-linecap="round" stroke-linejoin="round">
    <path d="M8 15h8c9 0 8 13 17 14"/>
    <path d="M8 32h25"/>
    <path d="M8 49h8c9 0 8-13 17-14"/>
  </g>
  <circle cx="39" cy="32" r="4" fill="currentColor"/></g><text x="1622" y="1040" fill="#f3f0e6" font-family="Inter, -apple-system, BlinkMacSystemFont, Segoe UI, sans-serif" font-size="8.5" font-weight="700" text-anchor="middle" letter-spacing="1.15">MONO DARK</text><rect x="1744" y="915" width="164" height="149" rx="10" fill="#f7f7f5" stroke="#253038"/><g transform="translate(1794 946) scale(1)" color="#101417" opacity="1"><g stroke="currentColor" stroke-width="4" stroke-linecap="round" stroke-linejoin="round">
    <path d="M8 15h8c9 0 8 13 17 14"/>
    <path d="M8 32h25"/>
    <path d="M8 49h8c9 0 8-13 17-14"/>
  </g>
  <circle cx="39" cy="32" r="4" fill="currentColor"/></g><text x="1826" y="1040" fill="#101417" font-family="Inter, -apple-system, BlinkMacSystemFont, Segoe UI, sans-serif" font-size="8.5" font-weight="700" text-anchor="middle" letter-spacing="1.15">MONO LIGHT</text><line x1="72" y1="1130" x2="1928" y2="1130" stroke="#253038"/><text x="72" y="1158" fill="#64717a" font-family="Inter, -apple-system, BlinkMacSystemFont, Segoe UI, sans-serif" font-size="11" font-weight="650" text-anchor="start" letter-spacing="1.65">STATIC FORM RETAINS IDENTITY IN EVERY MATERIAL CHECK</text>
  </svg>