<svg xmlns="http://www.w3.org/2000/svg" width="1800" height="850" viewBox="0 0 1800 850" role="img"><title>TIMELINE · HISTORY, NOW, AND FORWARD TIME</title><rect width="1800" height="850" fill="#071014"/><image href="../raw/09-timeline.png" x="0" y="0" width="1280" height="720" preserveAspectRatio="xMidYMid meet"/><rect x="1280" y="0" width="520" height="720" fill="#0b1519"/><line x1="1280" y1="0" x2="1280" y2="720" stroke="#30454c"/><path d="M610 220 C 1000 220, 1250 75, 1312 75" fill="none" stroke="#6bd5c3" stroke-opacity=".45" stroke-width="1.5"/><circle cx="610" cy="220" r="15" fill="#071014" stroke="#6bd5c3" stroke-width="2"/><text x="610" y="225" text-anchor="middle" fill="#e8faf6" font-size="13" font-weight="700">1</text><circle cx="1345" cy="75" r="15" fill="#6bd5c3"/><text x="1345" y="80" text-anchor="middle" fill="#071014" font-size="13" font-weight="700">1</text><text x="1375" y="71" fill="#f3f6f4" font-size="16" font-weight="700">Today / NOW</text><text x="1375" y="95" fill="#8fa4aa" font-size="13">Current time boundary.</text>
<path d="M720 270 C 1000 270, 1250 157, 1312 157" fill="none" stroke="#6bd5c3" stroke-opacity=".45" stroke-width="1.5"/><circle cx="720" cy="270" r="15" fill="#071014" stroke="#6bd5c3" stroke-width="2"/><text x="720" y="275" text-anchor="middle" fill="#e8faf6" font-size="13" font-weight="700">2</text><circle cx="1345" cy="157" r="15" fill="#6bd5c3"/><text x="1345" y="162" text-anchor="middle" fill="#071014" font-size="13" font-weight="700">2</text><text x="1375" y="153" fill="#f3f6f4" font-size="16" font-weight="700">Forecast mark</text><text x="1375" y="177" fill="#8fa4aa" font-size="13">Projected; owned by Forecast.</text>
<path d="M185 345 C 1000 345, 1250 239, 1312 239" fill="none" stroke="#6bd5c3" stroke-opacity=".45" stroke-width="1.5"/><circle cx="185" cy="345" r="15" fill="#071014" stroke="#6bd5c3" stroke-width="2"/><text x="185" y="350" text-anchor="middle" fill="#e8faf6" font-size="13" font-weight="700">3</text><circle cx="1345" cy="239" r="15" fill="#6bd5c3"/><text x="1345" y="244" text-anchor="middle" fill="#071014" font-size="13" font-weight="700">3</text><text x="1375" y="235" fill="#f3f6f4" font-size="16" font-weight="700">Project lane</text><text x="1375" y="259" fill="#8fa4aa" font-size="13">Dependency context stays visible.</text>
<path d="M700 35 C 1000 35, 1250 321, 1312 321" fill="none" stroke="#6bd5c3" stroke-opacity=".45" stroke-width="1.5"/><circle cx="700" cy="35" r="15" fill="#071014" stroke="#6bd5c3" stroke-width="2"/><text x="700" y="40" text-anchor="middle" fill="#e8faf6" font-size="13" font-weight="700">4</text><circle cx="1345" cy="321" r="15" fill="#6bd5c3"/><text x="1345" y="326" text-anchor="middle" fill="#071014" font-size="13" font-weight="700">4</text><text x="1375" y="317" fill="#f3f6f4" font-size="16" font-weight="700">Master ribbon</text><text x="1375" y="341" fill="#8fa4aa" font-size="13">Live Forecast per project.</text>
<path d="M160 670 C 1000 670, 1250 403, 1312 403" fill="none" stroke="#6bd5c3" stroke-opacity=".45" stroke-width="1.5"/><circle cx="160" cy="670" r="15" fill="#071014" stroke="#6bd5c3" stroke-width="2"/><text x="160" y="675" text-anchor="middle" fill="#e8faf6" font-size="13" font-weight="700">5</text><circle cx="1345" cy="403" r="15" fill="#6bd5c3"/><text x="1345" y="408" text-anchor="middle" fill="#071014" font-size="13" font-weight="700">5</text><text x="1375" y="399" fill="#f3f6f4" font-size="16" font-weight="700">Transport</text><text x="1375" y="423" fill="#8fa4aa" font-size="13">Play; history holds then steps.</text>
<path d="M530 670 C 1000 670, 1250 485, 1312 485" fill="none" stroke="#6bd5c3" stroke-opacity=".45" stroke-width="1.5"/><circle cx="530" cy="670" r="15" fill="#071014" stroke="#6bd5c3" stroke-width="2"/><text x="530" y="675" text-anchor="middle" fill="#e8faf6" font-size="13" font-weight="700">6</text><circle cx="1345" cy="485" r="15" fill="#6bd5c3"/><text x="1345" y="490" text-anchor="middle" fill="#071014" font-size="13" font-weight="700">6</text><text x="1375" y="481" fill="#f3f6f4" font-size="16" font-weight="700">Playhead</text><text x="1375" y="505" fill="#8fa4aa" font-size="13">Selected point in project memory.</text>
<path d="M940 670 C 1020 670, 1250 567, 1312 567" fill="none" stroke="#6bd5c3" stroke-opacity=".45" stroke-width="1.5"/><circle cx="940" cy="670" r="15" fill="#071014" stroke="#6bd5c3" stroke-width="2"/><text x="940" y="675" text-anchor="middle" fill="#e8faf6" font-size="13" font-weight="700">7</text><circle cx="1345" cy="567" r="15" fill="#6bd5c3"/><text x="1345" y="572" text-anchor="middle" fill="#071014" font-size="13" font-weight="700">7</text><text x="1375" y="563" fill="#f3f6f4" font-size="16" font-weight="700">Playback / snap / zoom</text><text x="1375" y="587" fill="#8fa4aa" font-size="13">View controls only.</text>
<path d="M1190 40 C 1270 40, 1250 649, 1312 649" fill="none" stroke="#6bd5c3" stroke-opacity=".45" stroke-width="1.5"/><circle cx="1190" cy="40" r="15" fill="#071014" stroke="#6bd5c3" stroke-width="2"/><text x="1190" y="45" text-anchor="middle" fill="#e8faf6" font-size="13" font-weight="700">8</text><circle cx="1345" cy="649" r="15" fill="#6bd5c3"/><text x="1345" y="654" text-anchor="middle" fill="#071014" font-size="13" font-weight="700">8</text><text x="1375" y="645" fill="#f3f6f4" font-size="16" font-weight="700">Add event</text><text x="1375" y="669" fill="#8fa4aa" font-size="13">Timeline-owned write.</text><rect x="0" y="720" width="1800" height="130" fill="#0d181d"/><text x="48" y="772" fill="#f3f6f4" font-family="Inter,Arial" font-size="27" font-weight="700">TIMELINE · HISTORY, NOW, AND FORWARD TIME</text><text x="48" y="808" fill="#8fa4aa" font-family="Inter,Arial" font-size="14">Release-fixture visual evidence · not current production data · current production code authority 6c46ce9</text><text x="1752" y="808" text-anchor="end" fill="#6bd5c3" font-family="Inter,Arial" font-size="14">Signal Training System</text></svg>